<?xml version="1.0" standalone="no"?>
<!DOCTYPE svg PUBLIC "-//W3C//DTD SVG 20010904//EN"
 "http://www.w3.org/TR/2001/REC-SVG-20010904/DTD/svg10.dtd">
<svg version="1.0" xmlns="http://www.w3.org/2000/svg"
 width="512.000000pt" height="512.000000pt" viewBox="0 0 512.000000 512.000000"
 preserveAspectRatio="xMidYMid meet">
<metadata>
Created by potrace 1.11, written by Peter Selinger 2001-2013
</metadata>
<g transform="translate(0.000000,512.000000) scale(0.100000,-0.100000)"
fill="#000000" stroke="none">
<path d="M485 5100 c-182 -49 -333 -170 -413 -331 -75 -152 -72 -97 -69 -1279
l2 -1055 23 -65 c22 -60 68 -151 95 -188 7 -9 40 -44 75 -78 99 -100 234 -164
372 -178 35 -4 66 -8 67 -10 1 -1 3 -189 3 -417 1 -459 0 -455 67 -506 61 -47
151 -36 223 27 44 38 447 385 639 549 190 162 303 259 351 302 l55 48 790 1
c435 1 812 3 840 6 65 7 172 44 243 86 146 85 277 273 300 428 4 25 7 522 7
1105 l0 1060 -23 65 c-80 222 -242 374 -462 430 -73 19 -124 19 -1595 19
-1448 -1 -1523 -2 -1590 -19z m3113 -312 c96 -24 170 -88 215 -186 l22 -47 0
-1040 0 -1040 -24 -45 c-49 -92 -113 -148 -200 -174 -47 -14 -156 -16 -887
-16 -641 0 -841 -3 -864 -13 -16 -6 -181 -142 -367 -302 -397 -340 -369 -317
-458 -393 l-70 -61 -5 337 c-3 185 -7 338 -8 339 -1 1 -16 18 -33 38 -39 44
-76 54 -212 56 -124 2 -176 12 -231 47 -57 36 -96 79 -125 141 l-26 56 -3
1005 c-2 746 0 1019 9 1060 21 101 94 184 197 226 l57 23 1483 1 c1107 0 1495
-3 1530 -12z"/>
<path d="M1054 4146 c-17 -8 -44 -31 -60 -52 -24 -31 -29 -47 -29 -93 1 -63
19 -98 69 -134 l31 -22 1016 0 1016 0 37 29 c49 37 69 85 61 143 -7 53 -26 85
-69 116 l-31 22 -1005 2 c-832 2 -1010 0 -1036 -11z"/>
<path d="M1075 3513 c-35 -9 -87 -55 -102 -91 -17 -41 -10 -111 14 -148 8 -14
30 -35 47 -47 l31 -22 696 0 696 0 37 29 c89 68 86 191 -8 260 -27 21 -37 21
-709 22 -375 1 -691 0 -702 -3z"/>
<path d="M4580 4119 c-67 -27 -106 -97 -95 -171 9 -60 42 -99 117 -135 79 -39
128 -85 165 -155 l28 -53 3 -1010 c2 -750 0 -1024 -9 -1065 -21 -100 -94 -184
-196 -225 -46 -19 -76 -23 -181 -24 -144 -2 -176 -12 -218 -67 l-29 -37 -5
-333 -5 -333 -280 240 c-154 132 -291 250 -305 263 -150 132 -292 247 -314
256 -18 6 -284 10 -769 10 l-742 0 -39 -23 c-101 -56 -108 -201 -15 -268 l34
-24 711 -5 710 -5 53 -45 c29 -25 63 -53 75 -63 11 -11 44 -38 71 -62 28 -23
138 -118 245 -210 107 -92 220 -188 249 -214 71 -60 128 -109 166 -143 116
-103 250 -207 271 -211 82 -15 149 15 184 83 18 35 19 63 20 451 0 227 1 414
3 415 1 1 27 5 57 9 91 11 108 14 162 36 200 78 350 247 405 455 4 16 8 499
10 1074 3 1168 5 1125 -67 1275 -96 199 -344 364 -470 314z"/>
</g>
</svg>
